<?xml version="1.0" encoding="UTF-8"?>
<svg width="203px" height="76px" viewBox="0 0 203 76" version="1.1" xmlns="http://www.w3.org/2000/svg" xmlns:xlink="http://www.w3.org/1999/xlink">
    <title>logo-横</title>
    <defs>
        <polygon id="path-1" points="32.6782909 75.6 46.6558124 67.3285237 46.6558124 63.2911635 50.225599 65.6256627 65.6307692 56.5422231 65.6307692 19.1060994 32.6782909 -1.03848554e-14 1.03848554e-14 19.1060994 1.03848554e-14 57.1027957"></polygon>
        <linearGradient x1="74.3721807%" y1="1.16427874%" x2="38.3389338%" y2="97.7161382%" id="linearGradient-3">
            <stop stop-color="#7E7EFF" offset="0.0819493007%"></stop>
            <stop stop-color="#2017C6" offset="100%"></stop>
        </linearGradient>
        <polygon id="path-4" points="31.0236939 72.2769231 43.7549743 64.8898387 43.7549743 59.3612219 48.4712356 62.2115169 62.3076923 54.0568507 62.3076923 18.2662708 31.0236939 0 0 18.2662708 0 54.5927827"></polygon>
        <linearGradient x1="50%" y1="0%" x2="115.621344%" y2="228.082185%" id="linearGradient-6">
            <stop stop-color="#FBFBFB" offset="1.43411276%"></stop>
            <stop stop-color="#CDCBCB" offset="100%"></stop>
        </linearGradient>
        <linearGradient x1="44.5422821%" y1="6.59253149%" x2="82.9174485%" y2="102.386118%" id="linearGradient-7">
            <stop stop-color="#F6F5F5" offset="0%"></stop>
            <stop stop-color="#E3E3E3" offset="100%"></stop>
            <stop stop-color="#CDCBCB" offset="100%"></stop>
        </linearGradient>
        <polygon id="path-8" points="15.0661974 12.2481263 15.0661974 4.10594454 22.0921235 -1.45606604e-13 44.2163951 12.7960157 44.2163951 16.8597431 10.7023746 36.2226487 22.0921235 42.8485897 37.1538118 34.1597259 37.1538118 29.0590622 44.2163951 24.962702 44.2163951 38.3401557 36.2673685 42.8485897 29.3254736 38.8634291 29.1938837 46.8268128 22.0921235 50.9948466 1.57412545e-14 38.2468432 1.57412545e-14 34.1597259 33.7148411 14.7940367 22.1669793 8.16905361"></polygon>
    </defs>
    <g id="页面-1" stroke="none" stroke-width="1" fill="none" fill-rule="evenodd">
        <g id="logo---横版" transform="translate(-115.000000, -101.000000)">
            <g id="logo-横" transform="translate(115.000000, 101.000000)">
                <text id="ZKRush" font-family="Saira-Black, Saira" font-size="34" font-weight="700" fill="#07071C">
                    <tspan x="78" y="50">ZKRush</tspan>
                </text>
                <g id="椭圆形">
                    <mask id="mask-2" fill="white">
                        <use xlink:href="#path-1"></use>
                    </mask>
                    <use id="蒙版" fill="#EAEAEA" xlink:href="#path-1"></use>
                    <g mask="url(#mask-2)">
                        <g transform="translate(1.661538, 1.661538)">
                            <mask id="mask-5" fill="white">
                                <use xlink:href="#path-4"></use>
                            </mask>
                            <use id="蒙版" stroke="none" fill="url(#linearGradient-3)" fill-rule="evenodd" xlink:href="#path-4"></use>
                            <circle id="椭圆形" stroke-opacity="0.5" stroke="#000000" stroke-width="0.5" fill="#6E6CF5" fill-rule="evenodd" opacity="0.25" mask="url(#mask-5)" cx="47.6307692" cy="11.6307692" r="26.8884615"></circle>
                            <circle id="椭圆形备份" stroke-opacity="0.5" stroke="#000000" stroke-width="0.5" fill="#514DE4" fill-rule="evenodd" opacity="0.25" mask="url(#mask-5)" transform="translate(4.707692, 21.323077) rotate(-75.000000) translate(-4.707692, -21.323077) " cx="4.70769231" cy="21.3230769" r="26.8884615"></circle>
                            <circle id="椭圆形备份-2" stroke-opacity="0.5" stroke="#000000" stroke-width="0.5" fill="#2C25CD" fill-rule="evenodd" opacity="0.25" mask="url(#mask-5)" transform="translate(17.169231, 62.307692) rotate(-75.000000) translate(-17.169231, -62.307692) " cx="17.1692308" cy="62.3076923" r="26.8884615"></circle>
                        </g>
                    </g>
                </g>
                <path d="M32.6782909,-6.39488462e-14 L65.6307692,19.1060994 L65.6307692,56.5422231 L50.225599,65.6256627 L46.6558124,63.2911635 L46.6558124,67.3285237 L32.6782909,75.6 L6.39488462e-14,57.1027957 L6.39488462e-14,19.1060994 L32.6782909,-6.39488462e-14 Z M32.6852324,1.66153846 L1.66153846,19.9278093 L1.66153846,56.2543212 L32.6852324,73.9384615 L45.4165128,66.5513771 L45.4165128,61.0227604 L50.1327741,63.8730554 L63.9692308,55.7183892 L63.9692308,19.9278093 L32.6852324,1.66153846 Z" id="形状结合" fill="#EAEAEA"></path>
                <g id="编组-6" transform="translate(10.800000, 11.076923)">
                    <polygon id="路径" fill="url(#linearGradient-6)" points="0.0297245732 26.1274716 7.11644951 21.9573431 7.11644951 16.8302959 15.0273081 12.2628746 8.03910786 8.16905361 0.0297245732 12.8149443"></polygon>
                    <g id="路径-2" transform="translate(0.000000, 0.000000)">
                        <mask id="mask-9" fill="white">
                            <use xlink:href="#path-8"></use>
                        </mask>
                        <use id="蒙版" fill="url(#linearGradient-7)" xlink:href="#path-8"></use>
                        <polygon stroke-opacity="0.2" stroke="#000000" stroke-width="0.5" fill="#D8D8D8" opacity="0.5" mask="url(#mask-9)" points="27.1796001 37.6693949 36.2673685 43.0378647 44.7064525 38.423435 36.2673685 33.6429011"></polygon>
                        <polygon id="路径-3" stroke-opacity="0.2" stroke="#000000" stroke-width="0.5" fill="#D8D8D8" opacity="0.5" mask="url(#mask-9)" points="10.8039242 36.2325392 3.93456044 40.841067 22.1538462 51.2307692 29.4240158 46.9392697 29.3289302 38.3403829 22.1081976 42.651742"></polygon>
                        <polygon id="路径-4" stroke-opacity="0.2" stroke="#000000" stroke-width="0.5" fill="#D8D8D8" opacity="0.5" mask="url(#mask-9)" points="0 34.1597259 13.4007236 34.7832879 41.9100638 18.3800022 29.6497872 17.1290312"></polygon>
                        <polygon id="路径-5" stroke-opacity="0.2" stroke="#000000" stroke-width="0.5" fill="#D8D8D8" opacity="0.5" mask="url(#mask-9)" points="14.9393519 4.03359114 22.2457704 8.30540276 14.8894623 12.5013181"></polygon>
                    </g>
                </g>
            </g>
        </g>
    </g>
</svg>